<svg width="141" height="26" viewBox="0 0 141 26" fill="none" xmlns="http://www.w3.org/2000/svg">
<path d="M12.75 4.32812L15.84 10.2524L22.75 11.2083L17.75 15.8171L18.93 22.3281L12.75 19.2524L6.57 22.3281L7.75 15.8171L2.75 11.2083L9.66 10.2524L12.75 4.32812Z" fill="white"/>
<path d="M40.75 4.32812L43.84 10.2524L50.75 11.2083L45.75 15.8171L46.93 22.3281L40.75 19.2524L34.57 22.3281L35.75 15.8171L30.75 11.2083L37.66 10.2524L40.75 4.32812Z" fill="white"/>
<path d="M68.75 4.32812L71.84 10.2524L78.75 11.2083L73.75 15.8171L74.93 22.3281L68.75 19.2524L62.57 22.3281L63.75 15.8171L58.75 11.2083L65.66 10.2524L68.75 4.32812Z" fill="white"/>
<path d="M96.75 4.32812L99.84 10.2524L106.75 11.2083L101.75 15.8171L102.93 22.3281L96.75 19.2524L90.57 22.3281L91.75 15.8171L86.75 11.2083L93.66 10.2524L96.75 4.32812Z" fill="white"/>
<path d="M124.75 4.32812L127.84 10.2524L134.75 11.2083L129.75 15.8171L130.93 22.3281L124.75 19.2524L118.57 22.3281L119.75 15.8171L114.75 11.2083L121.66 10.2524L124.75 4.32812Z" fill="white"/>
</svg>
