<svg width="144" height="26" viewBox="0 0 144 26" fill="none" xmlns="http://www.w3.org/2000/svg">
<path d="M12.0469 4.42188L15.1369 10.3462L22.0469 11.302L17.0469 15.9109L18.2269 22.4219L12.0469 19.3462L5.86688 22.4219L7.04688 15.9109L2.04688 11.302L8.95687 10.3462L12.0469 4.42188Z" fill="#FDC639"/>
<path d="M40.0469 4.42188L43.1369 10.3462L50.0469 11.302L45.0469 15.9109L46.2269 22.4219L40.0469 19.3462L33.8669 22.4219L35.0469 15.9109L30.0469 11.302L36.9569 10.3462L40.0469 4.42188Z" fill="#FDC639"/>
<path d="M68.0469 4.42188L71.1369 10.3462L78.0469 11.302L73.0469 15.9109L74.2269 22.4219L68.0469 19.3462L61.8669 22.4219L63.0469 15.9109L58.0469 11.302L64.9569 10.3462L68.0469 4.42188Z" fill="#FDC639"/>
<path d="M96.0469 4.42188L99.1369 10.3462L106.047 11.302L101.047 15.9109L102.227 22.4219L96.0469 19.3462L89.8669 22.4219L91.0469 15.9109L86.0469 11.302L92.9569 10.3462L96.0469 4.42188Z" fill="#FDC639"/>
<path d="M124.047 4.42188L127.137 10.3462L134.047 11.302L129.047 15.9109L130.227 22.4219L124.047 19.3462L117.867 22.4219L119.047 15.9109L114.047 11.302L120.957 10.3462L124.047 4.42188Z" fill="#FDC639"/>
</svg>
