<svg width="33" height="33" viewBox="0 0 33 33" fill="none" xmlns="http://www.w3.org/2000/svg">
<path d="M27.072 11.572C27.0889 11.8053 27.0889 12.0387 27.0889 12.272C27.0889 19.3887 21.5898 27.5887 11.5389 27.5887C8.44248 27.5887 5.566 26.7054 3.14636 25.172C3.58631 25.222 4.00928 25.2387 4.46616 25.2387C7.02112 25.2387 9.37311 24.3887 11.2513 22.9387C8.84858 22.8887 6.83503 21.3387 6.14127 19.2054C6.47971 19.2554 6.8181 19.2887 7.17346 19.2887C7.66414 19.2887 8.15487 19.222 8.6117 19.1054C6.10747 18.6054 4.22923 16.4387 4.22923 13.822V13.7554C4.95679 14.1554 5.80288 14.4054 6.6996 14.4387C5.22752 13.472 4.26308 11.822 4.26308 9.95533C4.26308 8.95536 4.53376 8.03869 5.00756 7.23868C7.69795 10.5053 11.742 12.6386 16.2766 12.872C16.1921 12.472 16.1413 12.0554 16.1413 11.6387C16.1413 8.67201 18.5778 6.25537 21.6066 6.25537C23.1802 6.25537 24.6016 6.90537 25.5998 7.95537C26.835 7.72205 28.0194 7.27202 29.0685 6.65537C28.6624 7.9054 27.7994 8.9554 26.6658 9.62202C27.7657 9.50541 28.8317 9.20534 29.813 8.78872C29.0686 9.85534 28.138 10.8053 27.072 11.572Z" fill="black"/>
</svg>
